<?xml version="1.0" encoding="UTF-8" standalone="no"?>
<!DOCTYPE svg PUBLIC "-//W3C//DTD SVG 1.1//EN"
 "http://www.w3.org/Graphics/SVG/1.1/DTD/svg11.dtd">
<!-- Generated by graphviz version 2.40.1 (20161225.0304)
 -->
<!-- Title: G Pages: 1 -->
<svg width="636pt" height="901pt"
 viewBox="0.00 0.00 636.36 901.00" xmlns="http://www.w3.org/2000/svg" xmlns:xlink="http://www.w3.org/1999/xlink">
<g id="graph0" class="graph" transform="scale(1 1) rotate(0) translate(4 897)">
<title>G</title>
<polygon fill="#ffffff" stroke="transparent" points="-4,4 -4,-897 632.358,-897 632.358,4 -4,4"/>
<!-- A0 -->
<g id="node1" class="node">
<title>A0</title>
<path fill="none" stroke="#000000" d="M274.0105,-893C274.0105,-893 244.0105,-893 244.0105,-893 238.0105,-893 232.0105,-887 232.0105,-881 232.0105,-881 232.0105,-869 232.0105,-869 232.0105,-863 238.0105,-857 244.0105,-857 244.0105,-857 274.0105,-857 274.0105,-857 280.0105,-857 286.0105,-863 286.0105,-869 286.0105,-869 286.0105,-881 286.0105,-881 286.0105,-887 280.0105,-893 274.0105,-893"/>
<text text-anchor="middle" x="259.0105" y="-872" font-family="Helvetica,sans-Serif" font-size="10.00" fill="#000000">Start</text>
</g>
<!-- A1 -->
<g id="node2" class="node">
<title>A1</title>
<path fill="none" stroke="#000000" d="M156.0315,-820C156.0315,-820 11.9895,-820 11.9895,-820 5.9895,-820 -.0105,-814 -.0105,-808 -.0105,-808 -.0105,-796 -.0105,-796 -.0105,-790 5.9895,-784 11.9895,-784 11.9895,-784 156.0315,-784 156.0315,-784 162.0315,-784 168.0315,-790 168.0315,-796 168.0315,-796 168.0315,-808 168.0315,-808 168.0315,-814 162.0315,-820 156.0315,-820"/>
<text text-anchor="middle" x="84.0105" y="-799" font-family="Helvetica,sans-Serif" font-size="10.00" fill="#000000">Get customer ID/Order/Site info</text>
</g>
<!-- A0&#45;&gt;A1 -->
<g id="edge1" class="edge">
<title>A0&#45;&gt;A1</title>
<path fill="none" stroke="#000000" d="M231.6668,-863.5938C206.4025,-853.0549 168.1699,-837.1065 136.9392,-824.0788"/>
<polygon fill="#000000" stroke="#000000" points="127.4938,-820.1387 138.4555,-819.8355 132.1084,-822.0637 136.723,-823.9887 136.723,-823.9887 136.723,-823.9887 132.1084,-822.0637 134.9905,-828.1418 127.4938,-820.1387 127.4938,-820.1387"/>
</g>
<!-- A4 -->
<g id="node5" class="node">
<title>A4</title>
<path fill="none" stroke="#000000" d="M317.2497,-820C317.2497,-820 200.7713,-820 200.7713,-820 194.7713,-820 188.7713,-814 188.7713,-808 188.7713,-808 188.7713,-796 188.7713,-796 188.7713,-790 194.7713,-784 200.7713,-784 200.7713,-784 317.2497,-784 317.2497,-784 323.2497,-784 329.2497,-790 329.2497,-796 329.2497,-796 329.2497,-808 329.2497,-808 329.2497,-814 323.2497,-820 317.2497,-820"/>
<text text-anchor="middle" x="259.0105" y="-799" font-family="Helvetica,sans-Serif" font-size="10.00" fill="#000000">ETL data from TDA excel</text>
</g>
<!-- A0&#45;&gt;A4 -->
<g id="edge4" class="edge">
<title>A0&#45;&gt;A4</title>
<path fill="none" stroke="#000000" d="M259.0105,-856.9551C259.0105,-848.8828 259.0105,-839.1764 259.0105,-830.1817"/>
<polygon fill="#000000" stroke="#000000" points="259.0105,-820.0904 263.5106,-830.0903 259.0105,-825.0904 259.0106,-830.0904 259.0106,-830.0904 259.0106,-830.0904 259.0105,-825.0904 254.5106,-830.0904 259.0105,-820.0904 259.0105,-820.0904"/>
</g>
<!-- A14 -->
<g id="node15" class="node">
<title>A14</title>
<path fill="none" stroke="#000000" d="M616.2058,-766C616.2058,-766 475.8152,-766 475.8152,-766 469.8152,-766 463.8152,-760 463.8152,-754 463.8152,-754 463.8152,-742 463.8152,-742 463.8152,-736 469.8152,-730 475.8152,-730 475.8152,-730 616.2058,-730 616.2058,-730 622.2058,-730 628.2058,-736 628.2058,-742 628.2058,-742 628.2058,-754 628.2058,-754 628.2058,-760 622.2058,-766 616.2058,-766"/>
<text text-anchor="middle" x="546.0105" y="-745" font-family="Helvetica,sans-Serif" font-size="10.00" fill="#000000">Clone repo for L3VPN Process</text>
</g>
<!-- A0&#45;&gt;A14 -->
<g id="edge18" class="edge">
<title>A0&#45;&gt;A14</title>
<path fill="none" stroke="#000000" d="M286.0108,-863.0521C333.9592,-841.8345 434.6556,-797.2755 495.7022,-770.2618"/>
<polygon fill="#000000" stroke="#000000" points="505.1452,-766.0832 497.8216,-774.245 500.5729,-768.1066 496.0006,-770.1299 496.0006,-770.1299 496.0006,-770.1299 500.5729,-768.1066 494.1796,-766.0148 505.1452,-766.0832 505.1452,-766.0832"/>
</g>
<!-- A2 -->
<g id="node3" class="node">
<title>A2</title>
<polygon fill="#d3d3d3" stroke="#000000" stroke-width="4" points="185.0105,-546 185.0105,-550 221.0105,-550 221.0105,-546 185.0105,-546"/>
<text text-anchor="middle" x="188.1494" y="-547.7" font-family="Helvetica,sans-Serif" font-size="1.00" fill="#000000"> </text>
<polyline fill="none" stroke="#000000" stroke-width="4" points="191.2884,-546 191.2884,-550 "/>
<text text-anchor="middle" x="194.9274" y="-547.7" font-family="Helvetica,sans-Serif" font-size="1.00" fill="#000000"> </text>
<polyline fill="none" stroke="#000000" stroke-width="4" points="198.5663,-546 198.5663,-550 "/>
<text text-anchor="middle" x="202.2052" y="-547.7" font-family="Helvetica,sans-Serif" font-size="1.00" fill="#000000"> </text>
<polyline fill="none" stroke="#000000" stroke-width="4" points="205.8442,-546 205.8442,-550 "/>
<text text-anchor="middle" x="209.4831" y="-547.7" font-family="Helvetica,sans-Serif" font-size="1.00" fill="#000000"> </text>
<polyline fill="none" stroke="#000000" stroke-width="4" points="213.1221,-546 213.1221,-550 "/>
<text text-anchor="middle" x="216.7611" y="-547.7" font-family="Helvetica,sans-Serif" font-size="1.00" fill="#000000"> </text>
</g>
<!-- A1&#45;&gt;A2 -->
<g id="edge2" class="edge">
<title>A1&#45;&gt;A2:n</title>
<path fill="none" stroke="#000000" d="M70.8828,-783.9736C45.4914,-746.7108 -4.4322,-659.9325 36.0105,-603 75.2583,-547.7496 176.5414,-613.813 187.1144,-560.122"/>
<polygon fill="#000000" stroke="#000000" points="188.0105,-550 191.611,-560.3579 187.5695,-554.9805 187.1286,-559.961 187.1286,-559.961 187.1286,-559.961 187.5695,-554.9805 182.6461,-559.5642 188.0105,-550 188.0105,-550"/>
</g>
<!-- A3 -->
<g id="node4" class="node">
<title>A3</title>
<polygon fill="none" stroke="#000000" points="112.6136,-712 49.4074,-712 49.4074,-676 118.6136,-676 118.6136,-706 112.6136,-712"/>
<polyline fill="none" stroke="#000000" points="112.6136,-712 112.6136,-706 "/>
<polyline fill="none" stroke="#000000" points="118.6136,-706 112.6136,-706 "/>
<text text-anchor="middle" x="84.0105" y="-691" font-family="Helvetica,sans-Serif" font-size="10.00" fill="#000000">CUIDSID</text>
</g>
<!-- A1&#45;&gt;A3 -->
<g id="edge3" class="edge">
<title>A1&#45;&gt;A3</title>
<path fill="none" stroke="#000000" stroke-dasharray="5,2" d="M84.0105,-783.6793C84.0105,-766.821 84.0105,-741.5651 84.0105,-722.147"/>
<polygon fill="#000000" stroke="#000000" points="84.0105,-712.0502 88.5106,-722.0501 84.0105,-717.0502 84.0106,-722.0502 84.0106,-722.0502 84.0106,-722.0502 84.0105,-717.0502 79.5106,-722.0502 84.0105,-712.0502 84.0105,-712.0502"/>
</g>
<!-- A13 -->
<g id="node14" class="node">
<title>A13</title>
<path fill="none" stroke="#000000" d="M514.3959,-493C514.3959,-493 341.6251,-493 341.6251,-493 335.6251,-493 329.6251,-487 329.6251,-481 329.6251,-481 329.6251,-469 329.6251,-469 329.6251,-463 335.6251,-457 341.6251,-457 341.6251,-457 514.3959,-457 514.3959,-457 520.3959,-457 526.3959,-463 526.3959,-469 526.3959,-469 526.3959,-481 526.3959,-481 526.3959,-487 520.3959,-493 514.3959,-493"/>
<text text-anchor="middle" x="428.0105" y="-472" font-family="Helvetica,sans-Serif" font-size="10.00" fill="#000000">Store formatted data deployment repo</text>
</g>
<!-- A2&#45;&gt;A13 -->
<g id="edge17" class="edge">
<title>A2&#45;&gt;A13</title>
<path fill="none" stroke="#000000" d="M209.5017,-545.894C231.7624,-538.6716 306.7201,-514.352 362.6728,-496.1985"/>
<polygon fill="#000000" stroke="#000000" points="372.5301,-493.0003 364.407,-500.3668 367.7742,-494.5434 363.0182,-496.0865 363.0182,-496.0865 363.0182,-496.0865 367.7742,-494.5434 361.6295,-491.8061 372.5301,-493.0003 372.5301,-493.0003"/>
</g>
<!-- A5 -->
<g id="node6" class="node">
<title>A5</title>
<polygon fill="#d3d3d3" stroke="#000000" stroke-width="4" points="241.0105,-692 241.0105,-696 277.0105,-696 277.0105,-692 241.0105,-692"/>
<text text-anchor="middle" x="258.6495" y="-693.7" font-family="Helvetica,sans-Serif" font-size="1.00" fill="#000000"> </text>
</g>
<!-- A4&#45;&gt;A5 -->
<g id="edge5" class="edge">
<title>A4&#45;&gt;A5:n</title>
<path fill="none" stroke="#000000" d="M259.0105,-783.9948C259.0105,-765.2122 259.0105,-734.611 259.0105,-706.3004"/>
<polygon fill="#000000" stroke="#000000" points="259.0105,-696 263.5106,-706 259.0105,-701 259.0106,-706 259.0106,-706 259.0106,-706 259.0105,-701 254.5106,-706 259.0105,-696 259.0105,-696"/>
</g>
<!-- A6 -->
<g id="node7" class="node">
<title>A6</title>
<path fill="none" stroke="#000000" d="M559.8672,-639C559.8672,-639 492.1538,-639 492.1538,-639 486.1538,-639 480.1538,-633 480.1538,-627 480.1538,-627 480.1538,-615 480.1538,-615 480.1538,-609 486.1538,-603 492.1538,-603 492.1538,-603 559.8672,-603 559.8672,-603 565.8672,-603 571.8672,-609 571.8672,-615 571.8672,-615 571.8672,-627 571.8672,-627 571.8672,-633 565.8672,-639 559.8672,-639"/>
<text text-anchor="middle" x="526.0105" y="-618" font-family="Helvetica,sans-Serif" font-size="10.00" fill="#000000">Get /30 for PE</text>
</g>
<!-- A5&#45;&gt;A6 -->
<g id="edge6" class="edge">
<title>A5&#45;&gt;A6</title>
<path fill="none" stroke="#000000" d="M267.5452,-691.9887C295.2807,-685.411 385.5104,-663.6869 470.3768,-639.0974"/>
<polygon fill="#000000" stroke="#000000" points="480.1612,-636.2423 471.8221,-643.3634 475.3613,-637.6429 470.5615,-639.0436 470.5615,-639.0436 470.5615,-639.0436 475.3613,-637.6429 469.301,-634.7237 480.1612,-636.2423 480.1612,-636.2423"/>
</g>
<!-- A9 -->
<g id="node10" class="node">
<title>A9</title>
<path fill="none" stroke="#000000" d="M173.8454,-639C173.8454,-639 136.1756,-639 136.1756,-639 130.1756,-639 124.1756,-633 124.1756,-627 124.1756,-627 124.1756,-615 124.1756,-615 124.1756,-609 130.1756,-603 136.1756,-603 136.1756,-603 173.8454,-603 173.8454,-603 179.8454,-603 185.8454,-609 185.8454,-615 185.8454,-615 185.8454,-627 185.8454,-627 185.8454,-633 179.8454,-639 173.8454,-639"/>
<text text-anchor="middle" x="155.0105" y="-618" font-family="Helvetica,sans-Serif" font-size="10.00" fill="#000000">Get RD</text>
</g>
<!-- A5&#45;&gt;A9 -->
<g id="edge9" class="edge">
<title>A5&#45;&gt;A9</title>
<path fill="none" stroke="#000000" d="M256.0101,-691.894C246.2556,-685.047 214.6098,-662.8341 189.3107,-645.0761"/>
<polygon fill="#000000" stroke="#000000" points="181.0151,-639.2532 191.7854,-641.3152 185.1076,-642.1259 189.2001,-644.9985 189.2001,-644.9985 189.2001,-644.9985 185.1076,-642.1259 186.6147,-648.6817 181.0151,-639.2532 181.0151,-639.2532"/>
</g>
<!-- A10 -->
<g id="node11" class="node">
<title>A10</title>
<path fill="none" stroke="#000000" d="M94.8454,-639C94.8454,-639 57.1756,-639 57.1756,-639 51.1756,-639 45.1756,-633 45.1756,-627 45.1756,-627 45.1756,-615 45.1756,-615 45.1756,-609 51.1756,-603 57.1756,-603 57.1756,-603 94.8454,-603 94.8454,-603 100.8454,-603 106.8454,-609 106.8454,-615 106.8454,-615 106.8454,-627 106.8454,-627 106.8454,-633 100.8454,-639 94.8454,-639"/>
<text text-anchor="middle" x="76.0105" y="-618" font-family="Helvetica,sans-Serif" font-size="10.00" fill="#000000">Get RR</text>
</g>
<!-- A5&#45;&gt;A10 -->
<g id="edge11" class="edge">
<title>A5&#45;&gt;A10</title>
<path fill="none" stroke="#000000" d="M253.1931,-691.9382C234.5608,-685.3022 174.5732,-663.6886 116.332,-639.4465"/>
<polygon fill="#000000" stroke="#000000" points="107.0063,-635.5351 117.9686,-635.2531 111.6172,-637.469 116.228,-639.4029 116.228,-639.4029 116.228,-639.4029 111.6172,-637.469 114.4875,-643.5527 107.0063,-635.5351 107.0063,-635.5351"/>
</g>
<!-- A11 -->
<g id="node12" class="node">
<title>A11</title>
<path fill="none" stroke="#000000" d="M449.7148,-639C449.7148,-639 344.3062,-639 344.3062,-639 338.3062,-639 332.3062,-633 332.3062,-627 332.3062,-627 332.3062,-615 332.3062,-615 332.3062,-609 338.3062,-603 344.3062,-603 344.3062,-603 449.7148,-603 449.7148,-603 455.7148,-603 461.7148,-609 461.7148,-615 461.7148,-615 461.7148,-627 461.7148,-627 461.7148,-633 455.7148,-639 449.7148,-639"/>
<text text-anchor="middle" x="397.0105" y="-618" font-family="Helvetica,sans-Serif" font-size="10.00" fill="#000000">Get Loopback Address</text>
</g>
<!-- A5&#45;&gt;A11 -->
<g id="edge13" class="edge">
<title>A5&#45;&gt;A11</title>
<path fill="none" stroke="#000000" d="M262.9917,-691.894C276.2008,-684.9066 319.6617,-661.9164 353.5516,-643.9891"/>
<polygon fill="#000000" stroke="#000000" points="362.8234,-639.0845 356.0881,-647.7382 358.4036,-641.4225 353.9839,-643.7605 353.9839,-643.7605 353.9839,-643.7605 358.4036,-641.4225 351.8797,-639.7827 362.8234,-639.0845 362.8234,-639.0845"/>
</g>
<!-- A12 -->
<g id="node13" class="node">
<title>A12</title>
<path fill="none" stroke="#000000" d="M302.3157,-639C302.3157,-639 215.7053,-639 215.7053,-639 209.7053,-639 203.7053,-633 203.7053,-627 203.7053,-627 203.7053,-615 203.7053,-615 203.7053,-609 209.7053,-603 215.7053,-603 215.7053,-603 302.3157,-603 302.3157,-603 308.3157,-603 314.3157,-609 314.3157,-615 314.3157,-615 314.3157,-627 314.3157,-627 314.3157,-633 308.3157,-639 302.3157,-639"/>
<text text-anchor="middle" x="259.0105" y="-618" font-family="Helvetica,sans-Serif" font-size="10.00" fill="#000000">Get Loopback Unit</text>
</g>
<!-- A5&#45;&gt;A12 -->
<g id="edge15" class="edge">
<title>A5&#45;&gt;A12</title>
<path fill="none" stroke="#000000" d="M259.0105,-691.894C259.0105,-685.5829 259.0105,-666.2168 259.0105,-649.3177"/>
<polygon fill="#000000" stroke="#000000" points="259.0105,-639.2532 263.5106,-649.2532 259.0105,-644.2532 259.0106,-649.2532 259.0106,-649.2532 259.0106,-649.2532 259.0105,-644.2532 254.5106,-649.2533 259.0105,-639.2532 259.0105,-639.2532"/>
</g>
<!-- A7 -->
<g id="node8" class="node">
<title>A7</title>
<path fill="none" stroke="#000000" d="M407.9783,-566C407.9783,-566 294.0427,-566 294.0427,-566 288.0427,-566 282.0427,-560 282.0427,-554 282.0427,-554 282.0427,-542 282.0427,-542 282.0427,-536 288.0427,-530 294.0427,-530 294.0427,-530 407.9783,-530 407.9783,-530 413.9783,-530 419.9783,-536 419.9783,-542 419.9783,-542 419.9783,-554 419.9783,-554 419.9783,-560 413.9783,-566 407.9783,-566"/>
<text text-anchor="middle" x="351.0105" y="-545" font-family="Helvetica,sans-Serif" font-size="10.00" fill="#000000">Allocate lowest IP for PE</text>
</g>
<!-- A6&#45;&gt;A7 -->
<g id="edge7" class="edge">
<title>A6&#45;&gt;A7</title>
<path fill="none" stroke="#000000" d="M482.7521,-602.9551C458.8786,-592.9964 429.0423,-580.5504 403.8036,-570.0223"/>
<polygon fill="#000000" stroke="#000000" points="394.3778,-566.0904 405.3395,-565.7872 398.9924,-568.0153 403.607,-569.9403 403.607,-569.9403 403.607,-569.9403 398.9924,-568.0153 401.8745,-574.0935 394.3778,-566.0904 394.3778,-566.0904"/>
</g>
<!-- A8 -->
<g id="node9" class="node">
<title>A8</title>
<path fill="none" stroke="#000000" d="M574.0961,-566C574.0961,-566 449.9249,-566 449.9249,-566 443.9249,-566 437.9249,-560 437.9249,-554 437.9249,-554 437.9249,-542 437.9249,-542 437.9249,-536 443.9249,-530 449.9249,-530 449.9249,-530 574.0961,-530 574.0961,-530 580.0961,-530 586.0961,-536 586.0961,-542 586.0961,-542 586.0961,-554 586.0961,-554 586.0961,-560 580.0961,-566 574.0961,-566"/>
<text text-anchor="middle" x="512.0105" y="-545" font-family="Helvetica,sans-Serif" font-size="10.00" fill="#000000">Allocate highest IP for CPE</text>
</g>
<!-- A6&#45;&gt;A8 -->
<g id="edge8" class="edge">
<title>A6&#45;&gt;A8</title>
<path fill="none" stroke="#000000" d="M522.5498,-602.9551C521.0017,-594.8828 519.1402,-585.1764 517.4152,-576.1817"/>
<polygon fill="#000000" stroke="#000000" points="515.4799,-566.0904 521.7829,-575.0638 516.4217,-571.0009 517.3634,-575.9114 517.3634,-575.9114 517.3634,-575.9114 516.4217,-571.0009 512.944,-576.759 515.4799,-566.0904 515.4799,-566.0904"/>
</g>
<!-- A9&#45;&gt;A2 -->
<g id="edge10" class="edge">
<title>A9&#45;&gt;A2:n</title>
<path fill="none" stroke="#000000" d="M171.9741,-602.9664C181.0023,-591.7824 190.8757,-576.4786 194.003,-560.2191"/>
<polygon fill="#000000" stroke="#000000" points="195.0105,-550 198.5075,-560.3933 194.5199,-554.9759 194.0292,-559.9518 194.0292,-559.9518 194.0292,-559.9518 194.5199,-554.9759 189.551,-559.5102 195.0105,-550 195.0105,-550"/>
</g>
<!-- A10&#45;&gt;A2 -->
<g id="edge12" class="edge">
<title>A10&#45;&gt;A2:n</title>
<path fill="none" stroke="#000000" d="M106.8336,-605.3281C135.9759,-590.3232 177.6747,-568.3175 194.5235,-556.8114"/>
<polygon fill="#000000" stroke="#000000" points="202.0105,-550 197.6418,-560.0581 198.312,-553.3647 194.6135,-556.7295 194.6135,-556.7295 194.6135,-556.7295 198.312,-553.3647 191.5853,-553.4008 202.0105,-550 202.0105,-550"/>
</g>
<!-- A11&#45;&gt;A2 -->
<g id="edge14" class="edge">
<title>A11&#45;&gt;A2:n</title>
<path fill="none" stroke="#000000" d="M332.5746,-602.9572C287.9314,-589.6791 233.3831,-571.6619 215.2212,-558.1409"/>
<polygon fill="#000000" stroke="#000000" points="209.0105,-550 218.6537,-555.221 212.0432,-553.9753 215.076,-557.9505 215.076,-557.9505 215.076,-557.9505 212.0432,-553.9753 211.4983,-560.68 209.0105,-550 209.0105,-550"/>
</g>
<!-- A12&#45;&gt;A2 -->
<g id="edge16" class="edge">
<title>A12&#45;&gt;A2:n</title>
<path fill="none" stroke="#000000" d="M240.955,-602.8278C231.5281,-591.7118 221.2936,-576.5281 218.0539,-560.2502"/>
<polygon fill="#000000" stroke="#000000" points="217.0105,-550 222.5002,-559.4928 217.5169,-554.9743 218.0233,-559.9486 218.0233,-559.9486 218.0233,-559.9486 217.5169,-554.9743 213.5465,-560.4044 217.0105,-550 217.0105,-550"/>
</g>
<!-- A15 -->
<g id="node16" class="node">
<title>A15</title>
<path fill="none" stroke="#000000" d="M487.5791,-420C487.5791,-420 368.4419,-420 368.4419,-420 362.4419,-420 356.4419,-414 356.4419,-408 356.4419,-408 356.4419,-396 356.4419,-396 356.4419,-390 362.4419,-384 368.4419,-384 368.4419,-384 487.5791,-384 487.5791,-384 493.5791,-384 499.5791,-390 499.5791,-396 499.5791,-396 499.5791,-408 499.5791,-408 499.5791,-414 493.5791,-420 487.5791,-420"/>
<text text-anchor="middle" x="428.0105" y="-399" font-family="Helvetica,sans-Serif" font-size="10.00" fill="#000000">Rename repo to CUIDSID</text>
</g>
<!-- A13&#45;&gt;A15 -->
<g id="edge20" class="edge">
<title>A13&#45;&gt;A15</title>
<path fill="none" stroke="#000000" d="M428.0105,-456.9551C428.0105,-448.8828 428.0105,-439.1764 428.0105,-430.1817"/>
<polygon fill="#000000" stroke="#000000" points="428.0105,-420.0904 432.5106,-430.0903 428.0105,-425.0904 428.0106,-430.0904 428.0106,-430.0904 428.0106,-430.0904 428.0105,-425.0904 423.5106,-430.0904 428.0105,-420.0904 428.0105,-420.0904"/>
</g>
<!-- A14&#45;&gt;A13 -->
<g id="edge19" class="edge">
<title>A14&#45;&gt;A13</title>
<path fill="none" stroke="#000000" d="M570.9451,-729.7919C590.3522,-713.3297 614.0105,-687.1757 614.0105,-657.5 614.0105,-657.5 614.0105,-657.5 614.0105,-548 614.0105,-526.2609 569.4267,-508.3103 523.9146,-495.6494"/>
<polygon fill="#000000" stroke="#000000" points="514.2044,-493.0285 525.0316,-491.2899 519.0316,-494.3315 523.8589,-495.6345 523.8589,-495.6345 523.8589,-495.6345 519.0316,-494.3315 522.6862,-499.979 514.2044,-493.0285 514.2044,-493.0285"/>
</g>
<!-- A16 -->
<g id="node17" class="node">
<title>A16</title>
<path fill="none" stroke="#000000" d="M460.0915,-347C460.0915,-347 395.9295,-347 395.9295,-347 389.9295,-347 383.9295,-341 383.9295,-335 383.9295,-335 383.9295,-323 383.9295,-323 383.9295,-317 389.9295,-311 395.9295,-311 395.9295,-311 460.0915,-311 460.0915,-311 466.0915,-311 472.0915,-317 472.0915,-323 472.0915,-323 472.0915,-335 472.0915,-335 472.0915,-341 466.0915,-347 460.0915,-347"/>
<text text-anchor="middle" x="428.0105" y="-326" font-family="Helvetica,sans-Serif" font-size="10.00" fill="#000000">Schedule Job</text>
</g>
<!-- A15&#45;&gt;A16 -->
<g id="edge21" class="edge">
<title>A15&#45;&gt;A16</title>
<path fill="none" stroke="#000000" d="M428.0105,-383.9551C428.0105,-375.8828 428.0105,-366.1764 428.0105,-357.1817"/>
<polygon fill="#000000" stroke="#000000" points="428.0105,-347.0904 432.5106,-357.0903 428.0105,-352.0904 428.0106,-357.0904 428.0106,-357.0904 428.0106,-357.0904 428.0105,-352.0904 423.5106,-357.0904 428.0105,-347.0904 428.0105,-347.0904"/>
</g>
<!-- A17 -->
<g id="node18" class="node">
<title>A17</title>
<polygon fill="none" stroke="#000000" points="428.0105,-274 410.0105,-256 428.0105,-238 446.0105,-256 428.0105,-274"/>
</g>
<!-- A16&#45;&gt;A17 -->
<g id="edge22" class="edge">
<title>A16&#45;&gt;A17</title>
<path fill="none" stroke="#000000" d="M428.0105,-310.9551C428.0105,-302.8828 428.0105,-293.1764 428.0105,-284.1817"/>
<polygon fill="#000000" stroke="#000000" points="428.0105,-274.0904 432.5106,-284.0903 428.0105,-279.0904 428.0106,-284.0904 428.0106,-284.0904 428.0106,-284.0904 428.0105,-279.0904 423.5106,-284.0904 428.0105,-274.0904 428.0105,-274.0904"/>
</g>
<!-- A18 -->
<g id="node19" class="node">
<title>A18</title>
<path fill="none" stroke="#000000" d="M324.6256,-190C324.6256,-190 289.3954,-190 289.3954,-190 283.3954,-190 277.3954,-184 277.3954,-178 277.3954,-178 277.3954,-166 277.3954,-166 277.3954,-160 283.3954,-154 289.3954,-154 289.3954,-154 324.6256,-154 324.6256,-154 330.6256,-154 336.6256,-160 336.6256,-166 336.6256,-166 336.6256,-178 336.6256,-178 336.6256,-184 330.6256,-190 324.6256,-190"/>
<text text-anchor="middle" x="307.0105" y="-169" font-family="Helvetica,sans-Serif" font-size="10.00" fill="#000000">Deploy</text>
</g>
<!-- A17&#45;&gt;A18 -->
<g id="edge23" class="edge">
<title>A17&#45;&gt;A18</title>
<path fill="none" stroke="#000000" d="M417.2726,-248.5456C400.4362,-236.8575 367.103,-213.7171 341.4735,-195.9247"/>
<polygon fill="#000000" stroke="#000000" points="333.1121,-190.1201 343.8929,-192.1263 337.2194,-192.9715 341.3267,-195.8228 341.3267,-195.8228 341.3267,-195.8228 337.2194,-192.9715 338.7605,-199.5194 333.1121,-190.1201 333.1121,-190.1201"/>
<text text-anchor="middle" x="387.068" y="-211" font-family="Helvetica,sans-Serif" font-size="10.00" fill="#000000">&#45;[Yes]</text>
</g>
<!-- A19 -->
<g id="node20" class="node">
<title>A19</title>
<polygon fill="none" stroke="#000000" points="449.8581,-190 354.1629,-190 354.1629,-154 455.8581,-154 455.8581,-184 449.8581,-190"/>
<polyline fill="none" stroke="#000000" points="449.8581,-190 449.8581,-184 "/>
<polyline fill="none" stroke="#000000" points="455.8581,-184 449.8581,-184 "/>
<text text-anchor="middle" x="405.0105" y="-169" font-family="Helvetica,sans-Serif" font-size="10.00" fill="#000000">Change Window</text>
</g>
<!-- A17&#45;&gt;A19 -->
<g id="edge24" class="edge">
<title>A17&#45;&gt;A19</title>
<path fill="none" stroke="#000000" stroke-dasharray="5,2" d="M424.1089,-241.7505C420.9736,-230.3002 416.4746,-213.869 412.6307,-199.8303"/>
<polygon fill="#000000" stroke="#000000" points="409.9764,-190.1362 416.9576,-198.5928 411.2969,-194.9587 412.6173,-199.7812 412.6173,-199.7812 412.6173,-199.7812 411.2969,-194.9587 408.2771,-200.9697 409.9764,-190.1362 409.9764,-190.1362"/>
</g>
<!-- A20 -->
<g id="node21" class="node">
<title>A20</title>
<path fill="none" stroke="#000000" d="M516.0105,-190C516.0105,-190 486.0105,-190 486.0105,-190 480.0105,-190 474.0105,-184 474.0105,-178 474.0105,-178 474.0105,-166 474.0105,-166 474.0105,-160 480.0105,-154 486.0105,-154 486.0105,-154 516.0105,-154 516.0105,-154 522.0105,-154 528.0105,-160 528.0105,-166 528.0105,-166 528.0105,-178 528.0105,-178 528.0105,-184 522.0105,-190 516.0105,-190"/>
<text text-anchor="middle" x="501.0105" y="-169" font-family="Helvetica,sans-Serif" font-size="10.00" fill="#000000">Wait</text>
</g>
<!-- A17&#45;&gt;A20 -->
<g id="edge25" class="edge">
<title>A17&#45;&gt;A20</title>
<path fill="none" stroke="#000000" d="M434.3097,-243.8607C439.8862,-233.7118 448.6312,-219.1485 458.3455,-208 461.5966,-204.2689 465.2482,-200.594 469.0112,-197.1013"/>
<polygon fill="#000000" stroke="#000000" points="476.799,-190.2282 472.279,-200.2192 473.0502,-193.5367 469.3013,-196.8452 469.3013,-196.8452 469.3013,-196.8452 473.0502,-193.5367 466.3236,-193.4713 476.799,-190.2282 476.799,-190.2282"/>
<text text-anchor="middle" x="468.843" y="-211" font-family="Helvetica,sans-Serif" font-size="10.00" fill="#000000">&#45;[No]</text>
</g>
<!-- A21 -->
<g id="node22" class="node">
<title>A21</title>
<path fill="none" stroke="#000000" d="M179.0105,-117C179.0105,-117 149.0105,-117 149.0105,-117 143.0105,-117 137.0105,-111 137.0105,-105 137.0105,-105 137.0105,-93 137.0105,-93 137.0105,-87 143.0105,-81 149.0105,-81 149.0105,-81 179.0105,-81 179.0105,-81 185.0105,-81 191.0105,-87 191.0105,-93 191.0105,-93 191.0105,-105 191.0105,-105 191.0105,-111 185.0105,-117 179.0105,-117"/>
<text text-anchor="middle" x="164.0105" y="-96" font-family="Helvetica,sans-Serif" font-size="10.00" fill="#000000">Test</text>
</g>
<!-- A18&#45;&gt;A21 -->
<g id="edge27" class="edge">
<title>A18&#45;&gt;A21</title>
<path fill="none" stroke="#000000" d="M277.3808,-156.8744C254.9923,-145.4453 224.1472,-129.6991 200.2823,-117.5164"/>
<polygon fill="#000000" stroke="#000000" points="191.1837,-112.8716 202.1364,-113.4104 195.637,-115.145 200.0903,-117.4184 200.0903,-117.4184 200.0903,-117.4184 195.637,-115.145 198.0443,-121.4264 191.1837,-112.8716 191.1837,-112.8716"/>
</g>
<!-- A23 -->
<g id="node24" class="node">
<title>A23</title>
<path fill="none" stroke="#000000" d="M392.7976,-117C392.7976,-117 221.2234,-117 221.2234,-117 215.2234,-117 209.2234,-111 209.2234,-105 209.2234,-105 209.2234,-93 209.2234,-93 209.2234,-87 215.2234,-81 221.2234,-81 221.2234,-81 392.7976,-81 392.7976,-81 398.7976,-81 404.7976,-87 404.7976,-93 404.7976,-93 404.7976,-105 404.7976,-105 404.7976,-111 398.7976,-117 392.7976,-117"/>
<text text-anchor="middle" x="307.0105" y="-96" font-family="Helvetica,sans-Serif" font-size="10.00" fill="#000000">Email sales with customer information</text>
</g>
<!-- A18&#45;&gt;A23 -->
<g id="edge29" class="edge">
<title>A18&#45;&gt;A23</title>
<path fill="none" stroke="#000000" d="M307.0105,-153.9551C307.0105,-145.8828 307.0105,-136.1764 307.0105,-127.1817"/>
<polygon fill="#000000" stroke="#000000" points="307.0105,-117.0904 311.5106,-127.0903 307.0105,-122.0904 307.0106,-127.0904 307.0106,-127.0904 307.0106,-127.0904 307.0105,-122.0904 302.5106,-127.0904 307.0105,-117.0904 307.0105,-117.0904"/>
</g>
<!-- A24 -->
<g id="node25" class="node">
<title>A24</title>
<path fill="none" stroke="#000000" d="M594.587,-117C594.587,-117 435.434,-117 435.434,-117 429.434,-117 423.434,-111 423.434,-105 423.434,-105 423.434,-93 423.434,-93 423.434,-87 429.434,-81 435.434,-81 435.434,-81 594.587,-81 594.587,-81 600.587,-81 606.587,-87 606.587,-93 606.587,-93 606.587,-105 606.587,-105 606.587,-111 600.587,-117 594.587,-117"/>
<text text-anchor="middle" x="515.0105" y="-96" font-family="Helvetica,sans-Serif" font-size="10.00" fill="#000000">Email engineer with PE information</text>
</g>
<!-- A18&#45;&gt;A24 -->
<g id="edge30" class="edge">
<title>A18&#45;&gt;A24</title>
<path fill="none" stroke="#000000" d="M336.7203,-157.4805C339.5025,-156.2563 342.2963,-155.0767 345.0105,-154 376.623,-141.4601 412.3379,-129.5735 442.8435,-120.0805"/>
<polygon fill="#000000" stroke="#000000" points="452.5531,-117.0847 444.3244,-124.333 447.7754,-118.5589 442.9976,-120.033 442.9976,-120.033 442.9976,-120.033 447.7754,-118.5589 441.6708,-115.7331 452.5531,-117.0847 452.5531,-117.0847"/>
</g>
<!-- A20&#45;&gt;A17 -->
<g id="edge26" class="edge">
<title>A20&#45;&gt;A17</title>
<path fill="none" stroke="#000000" d="M495.7368,-190.1797C492.3309,-199.7589 487.1798,-211.2927 480.0105,-220 471.5677,-230.254 459.4929,-238.8556 449.1038,-245.0769"/>
<polygon fill="#000000" stroke="#000000" points="440.1892,-250.1003 446.6921,-241.2706 444.5452,-247.6456 448.9013,-245.191 448.9013,-245.191 448.9013,-245.191 444.5452,-247.6456 451.1104,-249.1114 440.1892,-250.1003 440.1892,-250.1003"/>
</g>
<!-- A22 -->
<g id="node23" class="node">
<title>A22</title>
<polygon fill="none" stroke="#000000" points="254.5605,-44 67.4605,-44 67.4605,0 260.5605,0 260.5605,-38 254.5605,-44"/>
<polyline fill="none" stroke="#000000" points="254.5605,-44 254.5605,-38 "/>
<polyline fill="none" stroke="#000000" points="260.5605,-38 254.5605,-38 "/>
<text text-anchor="middle" x="164.0105" y="-31" font-family="Helvetica,sans-Serif" font-size="10.00" fill="#000000">Ping Loopback on other PE same RT</text>
<text text-anchor="middle" x="164.0105" y="-19" font-family="Helvetica,sans-Serif" font-size="10.00" fill="#000000">Ping customer CPE</text>
<text text-anchor="middle" x="164.0105" y="-7" font-family="Helvetica,sans-Serif" font-size="10.00" fill="#000000">Check customer CPE ARP</text>
</g>
<!-- A21&#45;&gt;A22 -->
<g id="edge28" class="edge">
<title>A21&#45;&gt;A22</title>
<path fill="none" stroke="#000000" stroke-dasharray="5,2" d="M164.0105,-80.7521C164.0105,-72.8888 164.0105,-63.4498 164.0105,-54.4612"/>
<polygon fill="#000000" stroke="#000000" points="164.0105,-44.2377 168.5106,-54.2376 164.0105,-49.2377 164.0106,-54.2377 164.0106,-54.2377 164.0106,-54.2377 164.0105,-49.2377 159.5106,-54.2377 164.0105,-44.2377 164.0105,-44.2377"/>
</g>
</g>
</svg>
